# xmcd
#
# Track frame offsets: 
#        150
#        12198
#        26572
#        38541
#        52471
#        69458
#        85070
#        98426
#        120587
#        132872
#
# Disc length: 1928 seconds
#
# Revision: 0
# Processed by: cddbd v1.5.2PL0 Copyright (c) Steve Scherf et al.
# Submitted via: ExactAudioCopy v1.0b1
#
DISCID=7707860a
DTITLE=Waylon Jennings and Willie Nelson - Take It to the Limit
DYEAR=1983
DGENRE=Country
TTITLE0=No Love at All
TTITLE1=Why Do I Have to Choose
TTITLE2=Why Baby, Why
TTITLE3=We Had It All
TTITLE4=Take It to the Limit
TTITLE5=Homeward Bound
TTITLE6=Blackjack County Chains
TTITLE7=Till I Gain Control Again
TTITLE8=Old Friends
TTITLE9=Would You Lay with Me (In a Field of Stone)
EXTD=
EXTT0=
EXTT1=
EXTT2=
EXTT3=
EXTT4=
EXTT5=
EXTT6=
EXTT7=
EXTT8=
EXTT9=
PLAYORDER=
